<svg width="50" height="50" viewBox="0 0 50 50" fill="none" xmlns="http://www.w3.org/2000/svg">
<path d="M21.875 28.125C21.875 27.2962 22.2042 26.5013 22.7903 25.9153C23.3763 25.3292 24.1712 25 25 25C25.8288 25 26.6237 25.3292 27.2097 25.9153C27.7958 26.5013 28.125 27.2962 28.125 28.125C28.125 28.9538 27.7958 29.7487 27.2097 30.3347C26.6237 30.9208 25.8288 31.25 25 31.25C24.1712 31.25 23.3763 30.9208 22.7903 30.3347C22.2042 29.7487 21.875 28.9538 21.875 28.125Z" fill="#154431"/>
<path fill-rule="evenodd" clip-rule="evenodd" d="M35.0219 6.25H14.9781L6.25 14.9781V43.75H43.75V14.9781L35.0219 6.25ZM11.5844 14.0625L16.2719 9.375H33.7281L38.4156 14.0625H11.5844ZM25 21.875C24.039 21.8752 23.091 22.0971 22.2297 22.5232C21.3684 22.9494 20.617 23.5685 20.0338 24.3323C19.4507 25.0961 19.0515 25.9841 18.8674 26.9273C18.6832 27.8704 18.719 28.8434 18.972 29.7704C19.225 30.6975 19.6884 31.5538 20.3261 32.2726C20.9638 32.9915 21.7587 33.5537 22.649 33.9154C23.5394 34.2771 24.5011 34.4286 25.4595 34.3582C26.4179 34.2878 27.3471 33.9973 28.175 33.5094L31.7062 37.0406L33.9188 34.8312L30.3875 31.3C30.9475 30.3505 31.2464 29.2697 31.2539 28.1674C31.2614 27.0651 30.9772 25.9804 30.4301 25.0234C29.883 24.0663 29.0926 23.271 28.1389 22.7181C27.1853 22.1652 26.1024 21.8743 25 21.875Z" fill="#154431"/>
</svg>
