<svg width="48" height="48" viewBox="0 0 48 48" fill="none" xmlns="http://www.w3.org/2000/svg">
<path d="M21 27C21 26.2044 21.3161 25.4413 21.8787 24.8787C22.4413 24.3161 23.2044 24 24 24C24.7956 24 25.5587 24.3161 26.1213 24.8787C26.6839 25.4413 27 26.2044 27 27C27 27.7956 26.6839 28.5587 26.1213 29.1213C25.5587 29.6839 24.7956 30 24 30C23.2044 30 22.4413 29.6839 21.8787 29.1213C21.3161 28.5587 21 27.7956 21 27Z" fill="white"/>
<path fill-rule="evenodd" clip-rule="evenodd" d="M33.621 6H14.379L6 14.379V42H42V14.379L33.621 6ZM11.121 13.5L15.621 9H32.379L36.879 13.5H11.121ZM24 21C23.0775 21.0002 22.1674 21.2132 21.3405 21.6223C20.5137 22.0314 19.7923 22.6257 19.2325 23.359C18.6727 24.0923 18.2895 24.9447 18.1127 25.8502C17.9359 26.7556 17.9702 27.6896 18.2131 28.5796C18.456 29.4696 18.9008 30.2916 19.5131 30.9817C20.1253 31.6719 20.8884 32.2115 21.7431 32.5588C22.5978 32.906 23.521 33.0515 24.4411 32.9839C25.3612 32.9163 26.2532 32.6374 27.048 32.169L30.438 35.559L32.562 33.438L29.172 30.048C29.7096 29.1365 29.9965 28.0989 30.0037 27.0407C30.0109 25.9825 29.7381 24.9412 29.2129 24.0224C28.6877 23.1037 27.9289 22.3402 27.0134 21.8094C26.0979 21.2785 25.0583 20.9993 24 21Z" fill="white"/>
</svg>
