<svg width="34" height="34" viewBox="0 0 34 34" fill="none" xmlns="http://www.w3.org/2000/svg">
<path fill-rule="evenodd" clip-rule="evenodd" d="M20.8989 2.71151C20.1051 3.80393 19.6238 5.09184 19.5064 6.43706C19.3891 7.78229 19.6402 9.13408 20.2328 10.3474C20.8255 11.5608 21.7372 12.5899 22.8703 13.3244C24.0035 14.0589 25.3151 14.471 26.6647 14.5166V14.5322C26.686 14.8127 26.7072 15.1003 26.7355 15.3779C27.0713 18.5612 27.8363 20.7471 28.5715 22.1822C29.0603 23.1384 29.5405 23.7731 29.8805 24.157C30.0298 24.3263 30.1907 24.4849 30.3622 24.6316L30.3764 24.6401C30.5582 24.772 30.6935 24.9582 30.7628 25.1718C30.8322 25.3854 30.8321 25.6155 30.7626 25.8291C30.693 26.0426 30.5576 26.2287 30.3757 26.3604C30.1938 26.4922 29.9748 26.563 29.7502 26.5625H4.25021C4.0261 26.5622 3.8078 26.4911 3.62655 26.3593C3.4453 26.2275 3.31037 26.0417 3.24106 25.8286C3.17174 25.6155 3.1716 25.3859 3.24064 25.1727C3.30968 24.9595 3.44438 24.7736 3.62546 24.6415L3.63679 24.6316L3.72746 24.5551C3.81246 24.4786 3.94988 24.3497 4.11988 24.157C4.45988 23.7745 4.94013 23.1398 5.42888 22.1836C6.40638 20.2725 7.43771 17.0425 7.43771 11.9C7.43771 9.23526 8.42938 6.66684 10.2144 4.76284C12.0022 2.85601 14.4417 1.77084 17.0002 1.77084C17.5423 1.77084 18.0773 1.81854 18.6053 1.91393C18.9425 1.97484 20.0475 2.31909 20.8989 2.71151Z" fill="white"/>
<path fill-rule="evenodd" clip-rule="evenodd" d="M21.6045 7.08334C21.6045 5.67438 22.1642 4.32313 23.1605 3.32684C24.1568 2.33055 25.5081 1.77084 26.917 1.77084C28.326 1.77084 29.6773 2.33055 30.6735 3.32684C31.6698 4.32313 32.2295 5.67438 32.2295 7.08334C32.2295 8.49231 31.6698 9.84356 30.6735 10.8398C29.6773 11.8361 28.326 12.3958 26.917 12.3958C25.5081 12.3958 24.1568 11.8361 23.1605 10.8398C22.1642 9.84356 21.6045 8.49231 21.6045 7.08334ZM14.0169 28.8306C14.1376 28.7606 14.2709 28.7151 14.4093 28.6967C14.5476 28.6783 14.6882 28.6873 14.823 28.7232C14.9579 28.7591 15.0843 28.8212 15.1951 28.906C15.306 28.9908 15.399 29.0966 15.469 29.2173C15.6247 29.4855 15.8481 29.7081 16.1168 29.8628C16.3856 30.0176 16.6903 30.099 17.0004 30.099C17.3105 30.099 17.6152 30.0176 17.8839 29.8628C18.1527 29.7081 18.3761 29.4855 18.5318 29.2173C18.6018 29.0966 18.695 28.9908 18.8059 28.9061C18.9168 28.8214 19.0433 28.7593 19.1782 28.7234C19.3131 28.6876 19.4538 28.6787 19.5921 28.6972C19.7305 28.7157 19.8638 28.7613 19.9846 28.8313C20.1053 28.9013 20.2111 28.9945 20.2958 29.1054C20.3806 29.2163 20.4426 29.3428 20.4785 29.4777C20.5143 29.6127 20.5233 29.7533 20.5048 29.8916C20.4862 30.03 20.4407 30.1634 20.3706 30.2841C20.0282 30.8746 19.5366 31.3648 18.9451 31.7056C18.3537 32.0464 17.683 32.2257 17.0004 32.2257C16.3177 32.2257 15.6471 32.0464 15.0556 31.7056C14.4641 31.3648 13.9725 30.8746 13.6301 30.2841C13.5599 30.1633 13.5143 30.0298 13.4957 29.8914C13.4772 29.7529 13.4861 29.6121 13.5221 29.4771C13.558 29.3421 13.6202 29.2155 13.7051 29.1046C13.79 28.9936 13.8959 28.9005 14.0169 28.8306Z" fill="white"/>
</svg>
