<svg width="48" height="48" viewBox="0 0 48 48" fill="none" xmlns="http://www.w3.org/2000/svg">
<path fill-rule="evenodd" clip-rule="evenodd" d="M8 8C6.93913 8 5.92172 8.42143 5.17157 9.17157C4.42143 9.92172 4 10.9391 4 12V36C4 37.0609 4.42143 38.0783 5.17157 38.8284C5.92172 39.5786 6.93913 40 8 40H40C41.0609 40 42.0783 39.5786 42.8284 38.8284C43.5786 38.0783 44 37.0609 44 36V12C44 10.9391 43.5786 9.92172 42.8284 9.17157C42.0783 8.42143 41.0609 8 40 8H8ZM28 18C28 17.4696 28.2107 16.9609 28.5858 16.5858C28.9609 16.2107 29.4696 16 30 16H36C36.5304 16 37.0391 16.2107 37.4142 16.5858C37.7893 16.9609 38 17.4696 38 18C38 18.5304 37.7893 19.0391 37.4142 19.4142C37.0391 19.7893 36.5304 20 36 20H30C29.4696 20 28.9609 19.7893 28.5858 19.4142C28.2107 19.0391 28 18.5304 28 18ZM28 24C28 23.4696 28.2107 22.9609 28.5858 22.5858C28.9609 22.2107 29.4696 22 30 22H36C36.5304 22 37.0391 22.2107 37.4142 22.5858C37.7893 22.9609 38 23.4696 38 24C38 24.5304 37.7893 25.0391 37.4142 25.4142C37.0391 25.7893 36.5304 26 36 26H30C29.4696 26 28.9609 25.7893 28.5858 25.4142C28.2107 25.0391 28 24.5304 28 24ZM28 30C28 29.4696 28.2107 28.9609 28.5858 28.5858C28.9609 28.2107 29.4696 28 30 28H36C36.5304 28 37.0391 28.2107 37.4142 28.5858C37.7893 28.9609 38 29.4696 38 30C38 30.5304 37.7893 31.0391 37.4142 31.4142C37.0391 31.7893 36.5304 32 36 32H30C29.4696 32 28.9609 31.7893 28.5858 31.4142C28.2107 31.0391 28 30.5304 28 30ZM12 20C12 18.4087 12.6321 16.8826 13.7574 15.7574C14.8826 14.6321 16.4087 14 18 14C19.5913 14 21.1174 14.6321 22.2426 15.7574C23.3679 16.8826 24 18.4087 24 20C24 21.5913 23.3679 23.1174 22.2426 24.2426C21.1174 25.3679 19.5913 26 18 26C16.4087 26 14.8826 25.3679 13.7574 24.2426C12.6321 23.1174 12 21.5913 12 20ZM15.884 28C14.6245 27.9996 13.3967 28.3955 12.3748 29.1317C11.3528 29.868 10.5884 30.9071 10.19 32.102L10.102 32.368L10.094 32.392C10.01 32.644 9.984 32.726 10.01 32.782C10.022 32.808 10.05 32.828 10.086 32.86C10.15 32.91 10.246 32.988 10.378 33.17C10.5633 33.4269 10.807 33.6361 11.089 33.7804C11.371 33.9247 11.6832 34 12 34H24C24.3168 34 24.629 33.9247 24.911 33.7804C25.193 33.6361 25.4367 33.4269 25.622 33.17C25.703 33.0524 25.8014 32.9478 25.914 32.86C25.952 32.828 25.976 32.808 25.99 32.78C26.018 32.726 25.99 32.644 25.906 32.392L25.898 32.368L25.81 32.102C25.4117 30.9075 24.6476 29.8685 23.6261 29.1323C22.6045 28.3961 21.3772 28 20.118 28H15.884Z" fill="#154431"/>
</svg>
