<svg width="34" height="34" viewBox="0 0 34 34" fill="none" xmlns="http://www.w3.org/2000/svg">
<path d="M27.3673 19.125H21.8777C21.1501 19.1242 20.4518 19.4121 19.9361 19.9254C19.4203 20.4388 19.1292 21.1357 19.1266 21.8634V27.353C19.1262 27.7144 19.1971 28.0723 19.3352 28.4063C19.4734 28.7402 19.676 29.0436 19.9315 29.2992C20.1871 29.5547 20.4905 29.7574 20.8245 29.8955C21.1584 30.0336 21.5164 30.1045 21.8777 30.1042H27.3673C28.0948 30.1012 28.7913 29.8099 29.3044 29.2942C29.8174 28.7785 30.1051 28.0804 30.1043 27.353V21.8634C30.1047 21.5039 30.0342 21.1478 29.8968 20.8156C29.7593 20.4833 29.5577 20.1814 29.3035 19.9272C29.0493 19.673 28.7474 19.4714 28.4152 19.334C28.0829 19.1966 27.7269 19.126 27.3673 19.1264M12.1226 19.125H6.633C5.90567 19.1291 5.20954 19.4209 4.69669 19.9367C4.18385 20.4524 3.89599 21.1502 3.896 21.8776V27.3672C3.89562 27.7267 3.96616 28.0828 4.10358 28.415C4.241 28.7472 4.44259 29.0491 4.69681 29.3033C4.95104 29.5576 5.25292 29.7592 5.58515 29.8966C5.91739 30.034 6.27347 30.1045 6.633 30.1042H12.1226C12.85 30.1049 13.5481 29.8172 14.0638 29.3042C14.5795 28.7911 14.8707 28.0946 14.8737 27.3672V21.8776C14.8741 21.5162 14.8032 21.1583 14.6651 20.8243C14.527 20.4903 14.3243 20.1869 14.0688 19.9314C13.8132 19.6758 13.5098 19.4732 13.1758 19.3351C12.8419 19.1969 12.484 19.126 12.1226 19.1264M12.1226 3.89581H6.633C6.27347 3.89544 5.91739 3.96598 5.58515 4.1034C5.25292 4.24081 4.95104 4.4424 4.69681 4.69663C4.44259 4.95086 4.241 5.25273 4.10358 5.58497C3.96616 5.91721 3.89562 6.27328 3.896 6.63281V12.1224C3.89524 12.8498 4.18291 13.5479 4.69595 14.0636C5.209 14.5793 5.90557 14.8706 6.633 14.8736H12.1226C12.484 14.8739 12.8419 14.803 13.1758 14.6649C13.5098 14.5268 13.8132 14.3241 14.0688 14.0686C14.3243 13.8131 14.527 13.5096 14.6651 13.1757C14.8032 12.8417 14.8741 12.4838 14.8737 12.1224V6.63281C14.8707 5.90539 14.5795 5.20882 14.0638 4.69577C13.5481 4.18273 12.85 3.89506 12.1226 3.89581ZM27.3673 3.89581H21.8777C21.1503 3.89506 20.4522 4.18273 19.9365 4.69577C19.4208 5.20882 19.1296 5.90539 19.1266 6.63281V12.1224C19.127 12.8519 19.4169 13.5515 19.9328 14.0674C20.4487 14.5832 21.1482 14.8732 21.8777 14.8736H27.3673C28.0948 14.8706 28.7913 14.5793 29.3044 14.0636C29.8174 13.5479 30.1051 12.8498 30.1043 12.1224V6.63281C30.1047 6.27328 30.0342 5.91721 29.8968 5.58497C29.7593 5.25273 29.5577 4.95086 29.3035 4.69663C29.0493 4.4424 28.7474 4.24081 28.4152 4.1034C28.0829 3.96598 27.7269 3.89544 27.3673 3.89581Z" stroke="white" stroke-width="1.5" stroke-linecap="round" stroke-linejoin="round"/>
</svg>
