<svg width="48" height="48" viewBox="0 0 48 48" fill="none" xmlns="http://www.w3.org/2000/svg">
<g clip-path="url(#clip0_209_179)">
<path d="M43.0002 8.00015H37.6668V12.0002C37.6668 12.3854 37.591 12.7668 37.4436 13.1227C37.2961 13.4786 37.0801 13.8019 36.8077 14.0743C36.5353 14.3467 36.2119 14.5628 35.8561 14.7102C35.5002 14.8576 35.1187 14.9335 34.7335 14.9335C34.3483 14.9335 33.9669 14.8576 33.611 14.7102C33.2551 14.5628 32.9317 14.3467 32.6593 14.0743C32.387 13.8019 32.1709 13.4786 32.0235 13.1227C31.8761 12.7668 31.8002 12.3854 31.8002 12.0002V8.00015H16.2668V12.0002C16.2668 12.7781 15.9578 13.5242 15.4077 14.0743C14.8576 14.6244 14.1115 14.9335 13.3335 14.9335C12.5555 14.9335 11.8094 14.6244 11.2593 14.0743C10.7092 13.5242 10.4002 12.7781 10.4002 12.0002V8.00015H5.06685C4.74954 7.99654 4.43474 8.0566 4.14105 8.17677C3.84736 8.29694 3.58076 8.47479 3.357 8.69979C3.13324 8.92479 2.95687 9.19238 2.83833 9.48673C2.71979 9.78108 2.66148 10.0962 2.66685 10.4135V40.2535C2.66155 40.5652 2.71771 40.8748 2.83211 41.1648C2.94651 41.4548 3.11692 41.7194 3.3336 41.9435C3.55027 42.1676 3.80898 42.3468 4.09494 42.4709C4.38089 42.5951 4.6885 42.6616 5.00018 42.6668H43.0002C43.3119 42.6616 43.6195 42.5951 43.9054 42.4709C44.1914 42.3468 44.4501 42.1676 44.6668 41.9435C44.8834 41.7194 45.0539 41.4548 45.1683 41.1648C45.2827 40.8748 45.3388 40.5652 45.3335 40.2535V10.4135C45.3388 10.1018 45.2827 9.79213 45.1683 9.50216C45.0539 9.21218 44.8834 8.94758 44.6668 8.72347C44.4501 8.49937 44.1914 8.32014 43.9054 8.19603C43.6195 8.07192 43.3119 8.00536 43.0002 8.00015ZM13.3335 34.6668H10.6668V32.0002H13.3335V34.6668ZM13.3335 28.0002H10.6668V25.3335H13.3335V28.0002ZM13.3335 21.3335H10.6668V18.6668H13.3335V21.3335ZM21.3335 34.6668H18.6668V32.0002H21.3335V34.6668ZM21.3335 28.0002H18.6668V25.3335H21.3335V28.0002ZM21.3335 21.3335H18.6668V18.6668H21.3335V21.3335ZM29.3335 34.6668H26.6668V32.0002H29.3335V34.6668ZM29.3335 28.0002H26.6668V25.3335H29.3335V28.0002ZM29.3335 21.3335H26.6668V18.6668H29.3335V21.3335ZM37.3335 34.6668H34.6668V32.0002H37.3335V34.6668ZM37.3335 28.0002H34.6668V25.3335H37.3335V28.0002ZM37.3335 21.3335H34.6668V18.6668H37.3335V21.3335Z" fill="#154431"/>
<path d="M13.3333 13.3332C13.687 13.3332 14.0261 13.1927 14.2761 12.9426C14.5262 12.6926 14.6667 12.3535 14.6667 11.9998V3.99984C14.6667 3.64622 14.5262 3.30708 14.2761 3.05703C14.0261 2.80698 13.687 2.6665 13.3333 2.6665C12.9797 2.6665 12.6406 2.80698 12.3905 3.05703C12.1405 3.30708 12 3.64622 12 3.99984V11.9998C12 12.3535 12.1405 12.6926 12.3905 12.9426C12.6406 13.1927 12.9797 13.3332 13.3333 13.3332Z" fill="#154431"/>
<path d="M34.6668 13.3332C35.0205 13.3332 35.3596 13.1927 35.6096 12.9426C35.8597 12.6926 36.0002 12.3535 36.0002 11.9998V3.99984C36.0002 3.64622 35.8597 3.30708 35.6096 3.05703C35.3596 2.80698 35.0205 2.6665 34.6668 2.6665C34.3132 2.6665 33.9741 2.80698 33.724 3.05703C33.474 3.30708 33.3335 3.64622 33.3335 3.99984V11.9998C33.3335 12.3535 33.474 12.6926 33.724 12.9426C33.9741 13.1927 34.3132 13.3332 34.6668 13.3332Z" fill="#154431"/>
</g>
<defs>
<clipPath id="clip0_209_179">
<rect width="48" height="48" fill="white"/>
</clipPath>
</defs>
</svg>
