<svg width="24" height="24" viewBox="0 0 24 24" fill="none" xmlns="http://www.w3.org/2000/svg">
<g clip-path="url(#clip0_62_564)">
<path fill-rule="evenodd" clip-rule="evenodd" d="M13.0599 16.06C12.7787 16.3409 12.3974 16.4987 11.9999 16.4987C11.6024 16.4987 11.2212 16.3409 10.9399 16.06L5.2819 10.404C5.00064 10.1226 4.84268 9.741 4.84277 9.34314C4.84287 8.94528 5.00101 8.56376 5.2824 8.2825C5.56379 8.00123 5.9454 7.84327 6.34325 7.84337C6.74111 7.84346 7.12264 8.0016 7.4039 8.283L11.9999 12.879L16.5959 8.283C16.8787 8.00962 17.2575 7.85825 17.6508 7.86148C18.0441 7.86471 18.4204 8.02229 18.6986 8.30027C18.9769 8.57825 19.1348 8.9544 19.1384 9.34769C19.142 9.74099 18.991 10.12 18.7179 10.403L13.0609 16.061L13.0599 16.06Z" fill="white"/>
</g>
<defs>
<clipPath id="clip0_62_564">
<rect width="24" height="24" fill="white"/>
</clipPath>
</defs>
</svg>
