<svg width="36" height="40" viewBox="0 0 36 40" fill="none" xmlns="http://www.w3.org/2000/svg">
<path d="M23 32C21.6 32 20.4167 31.5167 19.45 30.55C18.4833 29.5833 18 28.4 18 27C18 25.6 18.4833 24.4167 19.45 23.45C20.4167 22.4833 21.6 22 23 22C24.4 22 25.5833 22.4833 26.55 23.45C27.5167 24.4167 28 25.6 28 27C28 28.4 27.5167 29.5833 26.55 30.55C25.5833 31.5167 24.4 32 23 32ZM4 40C2.9 40 1.95867 39.6087 1.176 38.826C0.393333 38.0433 0.00133333 37.1013 0 36V8C0 6.9 0.392 5.95867 1.176 5.176C1.96 4.39333 2.90133 4.00133 4 4H6V0H10V4H26V0H30V4H32C33.1 4 34.042 4.392 34.826 5.176C35.61 5.96 36.0013 6.90133 36 8V36C36 37.1 35.6087 38.042 34.826 38.826C34.0433 39.61 33.1013 40.0013 32 40H4ZM4 36H32V16H4V36Z" fill="#154431"/>
</svg>
