<svg width="50" height="50" viewBox="0 0 50 50" fill="none" xmlns="http://www.w3.org/2000/svg">
<path d="M30.2083 37.4998C28.75 37.4998 27.5174 36.9964 26.5104 35.9894C25.5035 34.9825 25 33.7498 25 32.2915C25 30.8332 25.5035 29.6005 26.5104 28.5936C27.5174 27.5866 28.75 27.0832 30.2083 27.0832C31.6667 27.0832 32.8993 27.5866 33.9062 28.5936C34.9132 29.6005 35.4167 30.8332 35.4167 32.2915C35.4167 33.7498 34.9132 34.9825 33.9062 35.9894C32.8993 36.9964 31.6667 37.4998 30.2083 37.4998ZM10.4167 45.8332C9.27083 45.8332 8.29028 45.4255 7.475 44.6103C6.65972 43.795 6.25139 42.8137 6.25 41.6665V12.4998C6.25 11.354 6.65833 10.3734 7.475 9.55817C8.29167 8.74289 9.27222 8.33456 10.4167 8.33317H12.5V4.1665H16.6667V8.33317H33.3333V4.1665H37.5V8.33317H39.5833C40.7292 8.33317 41.7104 8.7415 42.5271 9.55817C43.3438 10.3748 43.7514 11.3554 43.75 12.4998V41.6665C43.75 42.8123 43.3424 43.7936 42.5271 44.6103C41.7118 45.4269 40.7306 45.8346 39.5833 45.8332H10.4167ZM10.4167 41.6665H39.5833V20.8332H10.4167V41.6665Z" fill="#154431"/>
</svg>
