<svg width="50" height="50" viewBox="0 0 50 50" fill="none" xmlns="http://www.w3.org/2000/svg">
<path d="M35.6667 20.5833C34.4953 19.412 32.9066 18.7539 31.25 18.7539C29.5934 18.7539 28.0047 19.412 26.8333 20.5833C25.662 21.7547 25.0039 23.3434 25.0039 25C25.0039 26.6566 25.662 28.2453 26.8333 29.4167C27.4133 29.9967 28.1019 30.4568 28.8597 30.7707C29.6175 31.0845 30.4297 31.2461 31.25 31.2461C32.0703 31.2461 32.8825 31.0845 33.6403 30.7707C34.3981 30.4568 35.0867 29.9967 35.6667 29.4167C36.2467 28.8367 36.7068 28.1481 37.0206 27.3903C37.3345 26.6325 37.4961 25.8203 37.4961 25C37.4961 24.1797 37.3345 23.3675 37.0206 22.6097C36.7068 21.8519 36.2467 21.1633 35.6667 20.5833ZM14.5833 12.5V37.5H47.9167V12.5H14.5833ZM43.75 29.1667C42.6458 29.1667 41.5833 29.6042 40.8125 30.3958C40.0208 31.1667 39.5833 32.2292 39.5833 33.3333H22.9167C22.9167 32.2292 22.4792 31.1667 21.6875 30.3958C20.9167 29.6042 19.8542 29.1667 18.75 29.1667V20.8333C19.8542 20.8333 20.9167 20.3958 21.6875 19.6042C22.4792 18.8333 22.9167 17.7708 22.9167 16.6667H39.5833C39.5833 17.7708 40.0208 18.8333 40.8125 19.6042C41.5833 20.3958 42.6458 20.8333 43.75 20.8333V29.1667ZM10.4167 16.6667H6.25C5.10417 16.6667 4.16667 15.7292 4.16667 14.5833C4.16667 13.4375 5.10417 12.5 6.25 12.5H10.4167V16.6667ZM10.4167 27.0833H4.16667C3.02083 27.0833 2.08333 26.1458 2.08333 25C2.08333 23.8542 3.02083 22.9167 4.16667 22.9167H10.4167V27.0833ZM10.4167 37.5H2.08333C0.933333 37.5 0 36.5625 0 35.4167C0 34.2708 0.933333 33.3333 2.08333 33.3333H10.4167V37.5Z" fill="black"/>
</svg>
