<svg width="50" height="50" viewBox="0 0 50 50" fill="none" xmlns="http://www.w3.org/2000/svg">
<path d="M16.1569 3.39795C13.8942 3.4002 11.7004 4.66455 10.8237 6.94512L2.65278 38.7974C1.41518 48.0295 10.5668 47.4636 16.1251 45.1837C24.0765 41.9224 33.8715 42.3309 41.8326 44.3771L42.4624 42.6956C41.7417 42.438 40.965 42.1108 40.2894 41.9105C40.3356 41.4844 40.3827 41.059 40.4297 40.6338L42.6795 41.0359L42.9954 39.2684L40.63 38.8457C40.69 38.3186 40.7509 37.7916 40.8126 37.2647L42.9742 37.5849L43.2372 35.8089C42.5 35.6995 41.7628 35.5903 41.0255 35.4813C41.0701 35.1136 41.1144 34.7459 41.1598 34.3787C41.9035 34.4854 42.6472 34.5919 43.391 34.6983L43.6456 32.921L41.3834 32.5972C41.4284 32.2463 41.5094 31.6218 41.5553 31.2713L43.78 31.5203L43.9797 29.8045C43.2505 29.723 42.5213 29.6414 41.792 29.5596C41.8685 28.9964 41.9792 28.4676 42.0584 27.905C42.8075 28.0144 43.5566 28.1241 44.3057 28.2339L44.5313 26.5602C43.781 26.4501 43.0307 26.3403 42.2803 26.2307C42.3577 25.7019 42.4026 25.2415 42.4826 24.7129C43.1734 24.8364 43.8642 24.9598 44.5551 25.083L44.8708 23.3154L42.7561 22.9379C42.828 22.4813 42.8999 22.0248 42.9739 21.5682C43.6553 21.7316 44.3367 21.8951 45.018 22.0586L45.4372 20.3127L43.2688 19.7922C43.3373 19.3859 43.4067 18.9797 43.477 18.5737C44.1586 18.7284 44.8403 18.8828 45.5221 19.0372L45.919 17.2862C45.2089 17.1251 44.4988 16.9641 43.7886 16.8032C43.8637 16.3866 43.94 15.9697 44.0173 15.5527L46.0429 16.0558L46.4756 14.3133L44.3515 13.7855C44.424 13.4098 44.4973 13.0339 44.5716 12.6577L46.5521 13.1474L46.9831 11.4043L44.9267 10.8958C45.0094 10.4928 45.093 10.09 45.1778 9.68741C45.9967 9.92276 46.46 9.91826 47.2686 10.1747L47.461 8.63848C39.2766 6.02364 29.9561 5.39434 23.6141 8.0083C21.2374 19.1446 19.971 29.6294 16.9704 41.0786C16.6376 42.3481 15.5573 43.2163 14.3002 43.8192C11.6635 44.9528 8.04702 45.1647 6.03559 43.3397C4.96421 42.33 4.4561 40.6995 4.81811 38.6934C5.04301 37.4471 5.8809 36.5463 6.85268 36.1174C8.7813 35.4266 11.0999 35.7023 12.604 36.8938C13.821 37.8022 13.8069 40.6323 12.2248 40.0012C11.2835 39.3986 12.0331 38.8438 11.3835 38.3041C10.2507 37.5787 8.80346 37.2424 7.57768 37.7602C7.03432 37.9999 6.70981 38.3204 6.58491 39.0123C6.2978 40.6031 6.6518 41.4533 7.26704 42.0331C9.05737 43.3505 11.6888 43.058 13.5237 42.2003C14.5046 41.7296 15.1132 41.0835 15.2337 40.6234C18.216 29.2447 19.4762 18.7364 21.903 7.42383C20.751 4.65586 18.4196 3.3958 16.1569 3.39795Z" fill="#154431"/>
</svg>
