<svg width="60" height="60" viewBox="0 0 60 60" fill="none" xmlns="http://www.w3.org/2000/svg">
<path d="M30 3.17822C24.8086 3.17822 19.6406 3.57197 16.0547 4.34893V11.8243H43.9453V4.34893C40.3594 3.57197 35.1914 3.17822 30 3.17822ZM19.2656 13.9337L21.1172 29.4024C21.7969 29.3673 22.5 29.3321 23.2266 29.297L21.3867 13.9337H19.2656ZM28.9336 13.9337L28.7461 29.1681H30.8555L31.043 13.9337H28.9336ZM38.6133 13.9337L36.7734 29.297C37.5 29.3321 38.2031 29.3673 38.8828 29.4024L40.7344 13.9337H38.6133ZM30 31.2774C26.2734 31.2774 22.5469 31.3946 19.5352 31.629C18.0352 31.7462 16.7109 31.8868 15.668 32.0509C15.0352 32.1563 14.5547 32.2735 14.1797 32.379V36.1993H45.8203V32.379C45.4453 32.2735 44.9648 32.1563 44.332 32.0509C43.2891 31.8868 41.9648 31.7462 40.4648 31.629C37.4531 31.3946 33.7266 31.2774 30 31.2774ZM17.9297 38.3087V56.8243H21.4453V38.3087H17.9297ZM38.5547 38.3087V56.8243H42.0703V38.3087H38.5547ZM23.5547 45.8087V47.6837H36.4453V45.8087H23.5547Z" fill="#154431"/>
</svg>
