<svg width="15" height="15" viewBox="0 0 15 15" fill="none" xmlns="http://www.w3.org/2000/svg">
<g opacity="0.8">
<path d="M7.84999 13.0125C7.74798 13.0858 7.62557 13.1252 7.49999 13.1252C7.3744 13.1252 7.25199 13.0858 7.14999 13.0125C4.13186 10.8612 0.928735 6.43625 4.16686 3.23875C5.05582 2.36428 6.25301 1.87445 7.49999 1.875C8.74999 1.875 9.94936 2.36563 10.8331 3.23813C14.0712 6.43563 10.8681 10.86 7.84999 13.0125Z" stroke="black" stroke-width="1.5" stroke-linecap="round" stroke-linejoin="round"/>
<path d="M7.5 7.5C7.83152 7.5 8.14946 7.3683 8.38388 7.13388C8.6183 6.89946 8.75 6.58152 8.75 6.25C8.75 5.91848 8.6183 5.60054 8.38388 5.36612C8.14946 5.1317 7.83152 5 7.5 5C7.16848 5 6.85054 5.1317 6.61612 5.36612C6.3817 5.60054 6.25 5.91848 6.25 6.25C6.25 6.58152 6.3817 6.89946 6.61612 7.13388C6.85054 7.3683 7.16848 7.5 7.5 7.5Z" stroke="black" stroke-width="1.5" stroke-linecap="round" stroke-linejoin="round"/>
</g>
</svg>
