<svg width="50" height="50" viewBox="0 0 50 50" fill="none" xmlns="http://www.w3.org/2000/svg">
<g clip-path="url(#clip0_162_70)">
<path d="M23.4375 34.375C25.5095 34.375 27.4966 33.5519 28.9618 32.0868C30.4269 30.6216 31.25 28.6345 31.25 26.5625V7.8125C31.25 5.7405 30.4269 3.75336 28.9618 2.28823C27.4966 0.8231 25.5095 0 23.4375 0C21.3655 0 19.3784 0.8231 17.9132 2.28823C16.4481 3.75336 15.625 5.7405 15.625 7.8125V26.5625C15.625 28.6345 16.4481 30.6216 17.9132 32.0868C19.3784 33.5519 21.3655 34.375 23.4375 34.375ZM34.375 21.875V26.5625C34.375 29.4633 33.2227 32.2453 31.1715 34.2965C29.1203 36.3477 26.3383 37.5 23.4375 37.5C20.5367 37.5 17.7547 36.3477 15.7035 34.2965C13.6523 32.2453 12.5 29.4633 12.5 26.5625V21.875H9.375V26.5625C9.3751 30.0215 10.65 33.3591 12.9561 35.9372C15.2621 38.5154 18.4374 40.1532 21.875 40.5375V46.875H15.625V50H31.25V46.875H25V40.5375C28.4376 40.1532 31.6129 38.5154 33.9189 35.9372C36.225 33.3591 37.4999 30.0215 37.5 26.5625V21.875H34.375Z" fill="#154431"/>
</g>
<defs>
<clipPath id="clip0_162_70">
<rect width="50" height="50" fill="white"/>
</clipPath>
</defs>
</svg>
