<svg width="48" height="40" viewBox="0 0 48 40" fill="none" xmlns="http://www.w3.org/2000/svg">
<path d="M13.9 14.1C13.2 14.1 12.7087 13.958 12.426 13.674C12.1433 13.39 12.0013 12.8987 12 12.2C12 10.8667 12.3167 9.63333 12.95 8.5C13.5833 7.36667 14.4333 6.43333 15.5 5.7L24 0L32.5 5.7C33.5667 6.43333 34.4167 7.36667 35.05 8.5C35.6833 9.63333 36 10.8667 36 12.2C36 12.9 35.858 13.392 35.574 13.676C35.29 13.96 34.7987 14.1013 34.1 14.1H13.9ZM2 40V15.45C1.4 15.0833 0.916667 14.6087 0.55 14.026C0.183333 13.4433 0 12.768 0 12C0 11.232 0.4 10.2987 1.2 9.2C2 8.10133 2.93333 7.03467 4 6C5.06667 7.03333 6 8.1 6.8 9.2C7.6 10.3 8 11.2333 8 12C8 12.7667 7.81667 13.442 7.45 14.026C7.08333 14.61 6.6 15.084 6 15.448V24H10V20C10 19.1667 10.2667 18.3667 10.8 17.6C11.3333 16.8333 12.1 16.3333 13.1 16.1H34.9C35.9 16.3333 36.6667 16.8333 37.2 17.6C37.7333 18.3667 38 19.1667 38 20V24H42V15.45C41.4 15.0833 40.9167 14.6087 40.55 14.026C40.1833 13.4433 40 12.768 40 12C40 11.232 40.4 10.2987 41.2 9.2C42 8.10133 42.9333 7.03467 44 6C45.0667 7.03333 46 8.1 46.8 9.2C47.6 10.3 48 11.2333 48 12C48 12.7667 47.8167 13.442 47.45 14.026C47.0833 14.61 46.6 15.0847 46 15.45V40H28V32C28 30.9 27.6087 29.9587 26.826 29.176C26.0433 28.3933 25.1013 28.0013 24 28C22.8987 27.9987 21.9573 28.3907 21.176 29.176C20.3947 29.9613 20.0027 30.9027 20 32V40H2Z" fill="#154431"/>
</svg>
