<svg width="40" height="32" viewBox="0 0 40 32" fill="none" xmlns="http://www.w3.org/2000/svg">
<g clip-path="url(#clip0_334_30)">
<path d="M25 0C25.3125 0 25.6125 0.15 25.8 0.4C27.9688 3.29375 30.6812 5.08125 34.1437 7.36875C34.4688 7.58125 34.8 7.80625 35.1437 8.03125C36.95 9.23125 38 11.2625 38 13.4125C38 15.2 37.2938 16.8188 36.1375 18H13.8625C12.7125 16.8125 12 15.1938 12 13.4125C12 11.2625 13.0437 9.23125 14.8562 8.03125C15.1937 7.80625 15.5312 7.5875 15.8562 7.36875C19.3188 5.08125 22.0312 3.29375 24.2 0.4C24.3875 0.15 24.6875 0 25 0ZM18 32V27.5C18 26.6688 17.3312 26 16.5 26C15.6687 26 15 26.6688 15 27.5V32H12C10.8938 32 10 31.1063 10 30V22C10 20.8937 10.8938 20 12 20H38C39.1063 20 40 20.8937 40 22V30C40 31.1063 39.1063 32 38 32H35V27.5C35 26.6688 34.3312 26 33.5 26C32.6688 26 32 26.6688 32 27.5V32H28V28.375C28 27.1875 27.475 26.0625 26.5625 25.3L25 24L23.4375 25.3C22.525 26.0625 22 27.1875 22 28.375V32H18ZM4.4 0.325C4.57268 0.194208 4.78338 0.123424 5 0.123424C5.21662 0.123424 5.42732 0.194208 5.6 0.325L6.6 1.075C8.7375 2.68125 10 5.2 10 7.875V8H0V7.875C0 5.2 1.2625 2.68125 3.4 1.075L4.4 0.325ZM0 10H10V18.5375C8.80625 19.2313 8 20.5187 8 22V30C8 30.6 8.13125 31.1625 8.3625 31.675C7.95 31.8875 7.4875 32 7 32H3C1.34375 32 0 30.6562 0 29V10Z" fill="white"/>
</g>
<defs>
<clipPath id="clip0_334_30">
<rect width="40" height="32" fill="white"/>
</clipPath>
</defs>
</svg>
