<svg width="45" height="40" viewBox="0 0 45 40" fill="none" xmlns="http://www.w3.org/2000/svg">
<path d="M13.0312 13.3632C12.375 13.3632 11.9144 13.2453 11.6494 13.0096C11.3844 12.7739 11.2513 12.366 11.25 11.7862C11.25 10.6795 11.5469 9.65582 12.1406 8.71516C12.7344 7.77449 13.5312 6.99982 14.5312 6.39116L22.5 1.66016L30.4688 6.39116C31.4688 6.99982 32.2656 7.77449 32.8594 8.71516C33.4531 9.65582 33.75 10.6795 33.75 11.7862C33.75 12.3672 33.6169 12.7755 33.3506 13.0112C33.0844 13.247 32.6237 13.3643 31.9687 13.3632H13.0312ZM1.875 34.8602V14.4837C1.3125 14.1793 0.859375 13.7853 0.515625 13.3017C0.171875 12.8181 0 12.2576 0 11.6202C0 10.9827 0.375 10.208 1.125 9.29616C1.875 8.38426 2.75 7.49893 3.75 6.64016C4.75 7.49782 5.625 8.38316 6.375 9.29616C7.125 10.2092 7.5 10.9838 7.5 11.6202C7.5 12.2565 7.32812 12.817 6.98438 13.3017C6.64062 13.7865 6.1875 14.1799 5.625 14.482V21.5802H9.375V18.2602C9.375 17.5685 9.625 16.9045 10.125 16.2682C10.625 15.6318 11.3438 15.2168 12.2812 15.0232H32.7188C33.6562 15.2168 34.375 15.6318 34.875 16.2682C35.375 16.9045 35.625 17.5685 35.625 18.2602V21.5802H39.375V14.4837C38.8125 14.1793 38.3594 13.7853 38.0156 13.3017C37.6719 12.8181 37.5 12.2576 37.5 11.6202C37.5 10.9827 37.875 10.208 38.625 9.29616C39.375 8.38426 40.25 7.49893 41.25 6.64016C42.25 7.49782 43.125 8.38316 43.875 9.29616C44.625 10.2092 45 10.9838 45 11.6202C45 12.2565 44.8281 12.817 44.4844 13.3017C44.1406 13.7865 43.6875 14.1804 43.125 14.4837V34.8602H26.25V28.2202C26.25 27.3072 25.8831 26.5259 25.1494 25.8762C24.4156 25.2266 23.5325 24.9013 22.5 24.9002C21.4675 24.8991 20.585 25.2244 19.8525 25.8762C19.12 26.5281 18.7525 27.3094 18.75 28.2202V34.8602H1.875Z" fill="white"/>
</svg>
