<svg width="48" height="48" viewBox="0 0 48 48" fill="none" xmlns="http://www.w3.org/2000/svg">
<path d="M27 18V15H24C23.6022 15 23.2206 15.158 22.9393 15.4393C22.658 15.7206 22.5 16.1022 22.5 16.5V31.5C22.5 31.8978 22.658 32.2794 22.9393 32.5607C23.2206 32.842 23.6022 33 24 33H27V30C27 29.2044 27.3161 28.4413 27.8787 27.8787C28.4413 27.3161 29.2044 27 30 27H39C39.7957 27 40.5587 27.3161 41.1213 27.8787C41.6839 28.4413 42 29.2044 42 30V39C42 39.7957 41.6839 40.5587 41.1213 41.1213C40.5587 41.6839 39.7957 42 39 42H30C29.2044 42 28.4413 41.6839 27.8787 41.1213C27.3161 40.5587 27 39.7957 27 39V36H24C22.8065 36 21.6619 35.5259 20.818 34.682C19.9741 33.8381 19.5 32.6935 19.5 31.5V25.5H13.5V27C13.5 27.7956 13.1839 28.5587 12.6213 29.1213C12.0587 29.6839 11.2956 30 10.5 30H4.5C3.70435 30 2.94129 29.6839 2.37868 29.1213C1.81607 28.5587 1.5 27.7956 1.5 27V21C1.5 20.2044 1.81607 19.4413 2.37868 18.8787C2.94129 18.3161 3.70435 18 4.5 18H10.5C11.2956 18 12.0587 18.3161 12.6213 18.8787C13.1839 19.4413 13.5 20.2044 13.5 21V22.5H19.5V16.5C19.5 15.3065 19.9741 14.1619 20.818 13.318C21.6619 12.4741 22.8065 12 24 12H27V9C27 8.20435 27.3161 7.44129 27.8787 6.87868C28.4413 6.31607 29.2044 6 30 6H39C39.7957 6 40.5587 6.31607 41.1213 6.87868C41.6839 7.44129 42 8.20435 42 9V18C42 18.7956 41.6839 19.5587 41.1213 20.1213C40.5587 20.6839 39.7957 21 39 21H30C29.2044 21 28.4413 20.6839 27.8787 20.1213C27.3161 19.5587 27 18.7956 27 18Z" fill="white"/>
</svg>
