<svg width="50" height="50" viewBox="0 0 50 50" fill="none" xmlns="http://www.w3.org/2000/svg">
<path d="M28.125 18.75V15.625H25C24.5856 15.625 24.1882 15.7896 23.8951 16.0826C23.6021 16.3757 23.4375 16.7731 23.4375 17.1875V32.8125C23.4375 33.2269 23.6021 33.6243 23.8951 33.9174C24.1882 34.2104 24.5856 34.375 25 34.375H28.125V31.25C28.125 30.4212 28.4542 29.6263 29.0403 29.0403C29.6263 28.4542 30.4212 28.125 31.25 28.125H40.625C41.4538 28.125 42.2487 28.4542 42.8347 29.0403C43.4208 29.6263 43.75 30.4212 43.75 31.25V40.625C43.75 41.4538 43.4208 42.2487 42.8347 42.8347C42.2487 43.4208 41.4538 43.75 40.625 43.75H31.25C30.4212 43.75 29.6263 43.4208 29.0403 42.8347C28.4542 42.2487 28.125 41.4538 28.125 40.625V37.5H25C23.7568 37.5 22.5645 37.0061 21.6854 36.1271C20.8064 35.248 20.3125 34.0557 20.3125 32.8125V26.5625H14.0625V28.125C14.0625 28.9538 13.7333 29.7487 13.1472 30.3347C12.5612 30.9208 11.7663 31.25 10.9375 31.25H4.6875C3.8587 31.25 3.06384 30.9208 2.47779 30.3347C1.89174 29.7487 1.5625 28.9538 1.5625 28.125V21.875C1.5625 21.0462 1.89174 20.2513 2.47779 19.6653C3.06384 19.0792 3.8587 18.75 4.6875 18.75H10.9375C11.7663 18.75 12.5612 19.0792 13.1472 19.6653C13.7333 20.2513 14.0625 21.0462 14.0625 21.875V23.4375H20.3125V17.1875C20.3125 15.9443 20.8064 14.752 21.6854 13.8729C22.5645 12.9939 23.7568 12.5 25 12.5H28.125V9.375C28.125 8.5462 28.4542 7.75134 29.0403 7.16529C29.6263 6.57924 30.4212 6.25 31.25 6.25H40.625C41.4538 6.25 42.2487 6.57924 42.8347 7.16529C43.4208 7.75134 43.75 8.5462 43.75 9.375V18.75C43.75 19.5788 43.4208 20.3737 42.8347 20.9597C42.2487 21.5458 41.4538 21.875 40.625 21.875H31.25C30.4212 21.875 29.6263 21.5458 29.0403 20.9597C28.4542 20.3737 28.125 19.5788 28.125 18.75Z" fill="#154431"/>
</svg>
