<svg width="40" height="40" viewBox="0 0 40 40" fill="none" xmlns="http://www.w3.org/2000/svg">
<g clip-path="url(#clip0_29_135)">
<path fill-rule="evenodd" clip-rule="evenodd" d="M0 4.14286C0 1.78571 1.98857 0 4.28571 0H35.7143C38.0114 0 40 1.78571 40 4.14286V20.1429C40 22.5 38.0114 24.2857 35.7143 24.2857H4.28571C1.98857 24.2857 0 22.5 0 20.1429V4.14286ZM25.7143 12.1429C25.7143 13.6584 25.1122 15.1118 24.0406 16.1835C22.969 17.2551 21.5155 17.8571 20 17.8571C18.4845 17.8571 17.031 17.2551 15.9594 16.1835C14.8878 15.1118 14.2857 13.6584 14.2857 12.1429C14.2857 10.6273 14.8878 9.17388 15.9594 8.10225C17.031 7.03061 18.4845 6.42857 20 6.42857C21.5155 6.42857 22.969 7.03061 24.0406 8.10225C25.1122 9.17388 25.7143 10.6273 25.7143 12.1429ZM10 12.8571C10 12.5757 9.94457 12.2971 9.83689 12.0371C9.7292 11.7771 9.57135 11.5409 9.37237 11.3419C9.17339 11.1429 8.93716 10.9851 8.67718 10.8774C8.4172 10.7697 8.13855 10.7143 7.85714 10.7143C7.57574 10.7143 7.29709 10.7697 7.03711 10.8774C6.77712 10.9851 6.5409 11.1429 6.34191 11.3419C6.14293 11.5409 5.98509 11.7771 5.8774 12.0371C5.76971 12.2971 5.71429 12.5757 5.71429 12.8571C5.71429 13.4255 5.94005 13.9705 6.34191 14.3724C6.74378 14.7742 7.28882 15 7.85714 15C8.42546 15 8.97051 14.7742 9.37237 14.3724C9.77424 13.9705 10 13.4255 10 12.8571ZM32.1429 10.7143C32.7112 10.7143 33.2562 10.9401 33.6581 11.3419C34.0599 11.7438 34.2857 12.2888 34.2857 12.8571C34.2857 13.4255 34.0599 13.9705 33.6581 14.3724C33.2562 14.7742 32.7112 15 32.1429 15C31.5745 15 31.0295 14.7742 30.6276 14.3724C30.2258 13.9705 30 13.4255 30 12.8571C30 12.2888 30.2258 11.7438 30.6276 11.3419C31.0295 10.9401 31.5745 10.7143 32.1429 10.7143ZM14.6429 30C14.6429 29.5264 14.4547 29.0722 14.1198 28.7373C13.7849 28.4024 13.3307 28.2143 12.8571 28.2143C12.3835 28.2143 11.9293 28.4024 11.5945 28.7373C11.2596 29.0722 11.0714 29.5264 11.0714 30V35.7143C11.0714 36.1879 11.2596 36.6421 11.5945 36.977C11.9293 37.3119 12.3835 37.5 12.8571 37.5C13.3307 37.5 13.7849 37.3119 14.1198 36.977C14.4547 36.6421 14.6429 36.1879 14.6429 35.7143V30ZM27.1429 28.2143C28.1286 28.2143 28.9286 29.0143 28.9286 30V35.7143C28.9286 35.9488 28.8824 36.181 28.7926 36.3976C28.7029 36.6143 28.5714 36.8112 28.4056 36.977C28.2397 37.1428 28.0429 37.2743 27.8262 37.3641C27.6096 37.4538 27.3774 37.5 27.1429 37.5C26.9084 37.5 26.6761 37.4538 26.4595 37.3641C26.2428 37.2743 26.046 37.1428 25.8802 36.977C25.7143 36.8112 25.5828 36.6143 25.4931 36.3976C25.4033 36.181 25.3571 35.9488 25.3571 35.7143V30C25.3571 29.0143 26.1571 28.2143 27.1429 28.2143ZM20 30.3571C20.9857 30.3571 21.7857 31.1571 21.7857 32.1429V37.8571C21.7857 38.3307 21.5976 38.785 21.2627 39.1198C20.9278 39.4547 20.4736 39.6429 20 39.6429C19.5264 39.6429 19.0722 39.4547 18.7373 39.1198C18.4024 38.785 18.2143 38.3307 18.2143 37.8571V32.1429C18.2143 31.1571 19.0143 30.3571 20 30.3571Z" fill="black"/>
</g>
<defs>
<clipPath id="clip0_29_135">
<rect width="40" height="40" fill="white"/>
</clipPath>
</defs>
</svg>
