<svg width="34" height="34" viewBox="0 0 34 34" fill="none" xmlns="http://www.w3.org/2000/svg">
<path d="M14.1668 26.9167L14.3652 26.7183C13.4887 26.4632 12.719 25.9301 12.1722 25.1992C11.6253 24.4683 11.3309 23.5795 11.3335 22.6667C11.3335 21.5395 11.7813 20.4585 12.5783 19.6615C13.3753 18.8644 14.4563 18.4167 15.5835 18.4167C17.5102 18.4167 19.1252 19.6917 19.6352 21.4483L28.3335 12.75V9.91667L22.6668 4.25H5.66683C4.91538 4.25 4.19471 4.54851 3.66336 5.07986C3.13201 5.61122 2.8335 6.33189 2.8335 7.08333V26.9167C2.8335 27.6681 3.13201 28.3888 3.66336 28.9201C4.19471 29.4515 4.91538 29.75 5.66683 29.75H14.1668V26.9167ZM5.66683 7.08333H19.8335V12.75H5.66683V7.08333ZM28.3902 17.1842C28.1918 17.1842 27.9935 17.2692 27.8377 17.425L26.421 18.8417L29.3252 21.7458L30.7418 20.3292C31.0535 20.0317 31.0535 19.5358 30.7418 19.2383L28.9285 17.425C28.8597 17.3506 28.7765 17.2909 28.684 17.2495C28.5914 17.2081 28.4915 17.1859 28.3902 17.1842ZM25.5993 19.6633L17.0002 28.2483V31.1667H19.9185L28.5035 22.5675L25.5993 19.6633Z" fill="white"/>
</svg>
