<svg width="38" height="38" viewBox="0 0 38 38" fill="none" xmlns="http://www.w3.org/2000/svg">
<path fill-rule="evenodd" clip-rule="evenodd" d="M29.0219 0.25H8.97813L0.25 8.97813V37.75H37.75V8.97813L29.0219 0.25ZM5.58437 8.0625L10.2719 3.375H27.7281L32.4156 8.0625H5.58437ZM19 15.875C18.039 15.8752 17.091 16.0971 16.2297 16.5232C15.3684 16.9494 14.617 17.5685 14.0338 18.3323C13.4507 19.0961 13.0515 19.9841 12.8674 20.9273C12.6832 21.8704 12.719 22.8434 12.972 23.7704C13.225 24.6975 13.6884 25.5538 14.3261 26.2726C14.9638 26.9915 15.7587 27.5537 16.649 27.9154C17.5394 28.2771 18.5011 28.4286 19.4595 28.3582C20.4179 28.2878 21.3471 27.9973 22.175 27.5094L25.7062 31.0406L27.9188 28.8312L24.3875 25.3C24.9475 24.3505 25.2464 23.2697 25.2539 22.1674C25.2614 21.0651 24.9772 19.9804 24.4301 19.0234C23.883 18.0663 23.0926 17.271 22.1389 16.7181C21.1853 16.1652 20.1024 15.8743 19 15.875Z" fill="#154431"/>
</svg>
