<svg width="50" height="50" viewBox="0 0 50 50" fill="none" xmlns="http://www.w3.org/2000/svg">
<path d="M25 35.4167C25.5903 35.4167 26.0854 35.2167 26.4854 34.8167C26.8854 34.4167 27.0847 33.9222 27.0833 33.3333C27.0819 32.7444 26.8819 32.25 26.4833 31.85C26.0847 31.45 25.5903 31.25 25 31.25C24.4097 31.25 23.9153 31.45 23.5167 31.85C23.1181 32.25 22.9181 32.7444 22.9167 33.3333C22.9153 33.9222 23.1153 34.4174 23.5167 34.8187C23.9181 35.2201 24.4125 35.4194 25 35.4167ZM22.9167 27.0833H27.0833V14.5833H22.9167V27.0833ZM17.1875 43.75L6.25 32.8125V17.1875L17.1875 6.25H32.8125L43.75 17.1875V32.8125L32.8125 43.75H17.1875Z" fill="#D7191C"/>
</svg>
