<svg width="50" height="50" viewBox="0 0 50 50" fill="none" xmlns="http://www.w3.org/2000/svg">
<path d="M35.4167 12.5C37.7179 12.5 39.5833 10.6345 39.5833 8.33332C39.5833 6.03214 37.7179 4.16666 35.4167 4.16666C33.1155 4.16666 31.25 6.03214 31.25 8.33332C31.25 10.6345 33.1155 12.5 35.4167 12.5Z" fill="black"/>
<path d="M32.8687 22.8521C33.3476 23.5641 34.0337 24.1118 34.8341 24.421C35.6345 24.7303 36.5105 24.7862 37.3437 24.5812L44.2521 22.8542L43.2458 18.8125L36.3375 20.5396L33.4646 16.2333C33.1615 15.7772 32.7714 15.3852 32.3167 15.0799C31.862 14.7747 31.3516 14.562 30.8146 14.4542L22.8021 12.85C21.9057 12.6708 20.9754 12.7914 20.1543 13.1931C19.3332 13.5948 18.667 14.2553 18.2583 15.0729L14.8042 21.9812L18.5313 23.8458L21.9854 16.9354L26.0833 17.7562L15.4875 35.4167H6.25V39.5833H15.4875C16.9417 39.5833 18.3104 38.8083 19.0604 37.5604L23.0562 30.9021L33.825 33.0562L37.6083 44.4083L41.5583 43.0896L37.7771 31.7396C37.5432 31.0431 37.1301 30.4204 36.5794 29.934C36.0287 29.4476 35.3597 29.1147 34.6396 28.9687L28.3083 27.7042L32 21.55L32.8687 22.8521Z" fill="black"/>
</svg>
