<svg width="50" height="50" viewBox="0 0 50 50" fill="none" xmlns="http://www.w3.org/2000/svg">
<path d="M40.9788 45.9792L38.0413 43.0417C39.5923 41.4955 40.8216 39.6573 41.6583 37.6335C42.4951 35.6096 42.9226 33.44 42.9163 31.25C42.9163 26.625 41.0622 22.4583 38.0413 19.4583L40.9788 16.5208C42.9163 18.4529 44.4529 20.7487 45.5005 23.2764C46.548 25.8041 47.0858 28.5138 47.083 31.25C47.083 37 44.7497 42.2083 40.9788 45.9792ZM35.083 40.0833L32.1455 37.1458C32.9191 36.3714 33.5326 35.452 33.9508 34.4404C34.369 33.4288 34.5839 32.3447 34.583 31.25C34.583 28.9375 33.6455 26.8542 32.1455 25.3542L35.083 22.4167C36.2459 23.5749 37.1685 24.9516 37.7978 26.4675C38.427 27.9834 38.7505 29.6087 38.7497 31.25C38.7497 34.6875 37.3538 37.8125 35.083 40.0833ZM7.49967 12.5H24.1663C25.2714 12.5 26.3312 12.939 27.1126 13.7204C27.894 14.5018 28.333 15.5616 28.333 16.6667V45.8333C28.333 46.9384 27.894 47.9982 27.1126 48.7796C26.3312 49.561 25.2714 50 24.1663 50H7.49967C6.39461 50 5.3348 49.561 4.5534 48.7796C3.77199 47.9982 3.33301 46.9384 3.33301 45.8333V16.6667C3.33301 15.5616 3.77199 14.5018 4.5534 13.7204C5.3348 12.939 6.39461 12.5 7.49967 12.5ZM15.833 16.6667C14.7279 16.6667 13.6681 17.1057 12.8867 17.8871C12.1053 18.6685 11.6663 19.7283 11.6663 20.8333C11.6663 21.9384 12.1053 22.9982 12.8867 23.7796C13.6681 24.561 14.7279 25 15.833 25C16.9381 25 17.9979 24.561 18.7793 23.7796C19.5607 22.9982 19.9997 21.9384 19.9997 20.8333C19.9997 19.7283 19.5607 18.6685 18.7793 17.8871C17.9979 17.1057 16.9381 16.6667 15.833 16.6667ZM15.833 29.1667C13.6229 29.1667 11.5033 30.0446 9.94045 31.6074C8.37765 33.1702 7.49967 35.2899 7.49967 37.5C7.49967 39.7101 8.37765 41.8298 9.94045 43.3926C11.5033 44.9554 13.6229 45.8333 15.833 45.8333C18.0431 45.8333 20.1628 44.9554 21.7256 43.3926C23.2884 41.8298 24.1663 39.7101 24.1663 37.5C24.1663 35.2899 23.2884 33.1702 21.7256 31.6074C20.1628 30.0446 18.0431 29.1667 15.833 29.1667ZM15.833 33.3333C16.9381 33.3333 17.9979 33.7723 18.7793 34.5537C19.5607 35.3351 19.9997 36.3949 19.9997 37.5C19.9997 38.6051 19.5607 39.6649 18.7793 40.4463C17.9979 41.2277 16.9381 41.6667 15.833 41.6667C14.7279 41.6667 13.6681 41.2277 12.8867 40.4463C12.1053 39.6649 11.6663 38.6051 11.6663 37.5C11.6663 36.3949 12.1053 35.3351 12.8867 34.5537C13.6681 33.7723 14.7279 33.3333 15.833 33.3333Z" fill="#154431"/>
</svg>
