<svg width="34" height="34" viewBox="0 0 34 34" fill="none" xmlns="http://www.w3.org/2000/svg">
<path d="M16.2918 2.83334C14.2254 2.83334 12.2435 3.65425 10.7823 5.11547C9.32107 6.57669 8.50016 8.55853 8.50016 10.625C8.50016 12.6915 9.32107 14.6733 10.7823 16.1346C12.2435 17.5958 14.2254 18.4167 16.2918 18.4167C18.3583 18.4167 20.3402 17.5958 21.8014 16.1346C23.2626 14.6733 24.0835 12.6915 24.0835 10.625C24.0835 8.55853 23.2626 6.57669 21.8014 5.11547C20.3402 3.65425 18.3583 2.83334 16.2918 2.83334ZM27.6252 18.0625V20.0118C28.6381 20.2725 29.5405 20.8052 30.2517 21.5305L31.9403 20.5544L33.357 23.0081L31.6697 23.9828C31.9456 24.9755 31.9456 26.0246 31.6697 27.0173L33.357 27.9919L31.9403 30.4456L30.2517 29.4695C29.5305 30.2051 28.6224 30.7301 27.6252 30.9882V32.9375H24.7918V30.9882C23.7946 30.7301 22.8865 30.2051 22.1653 29.4695L20.4752 30.4456L19.0586 27.9919L20.7472 27.0173C20.4714 26.0246 20.4714 24.9755 20.7472 23.9828L19.0586 23.0081L20.4752 20.5544L22.1653 21.5291C22.8867 20.7941 23.7947 20.2695 24.7918 20.0118V18.0625H27.6252ZM23.7279 24.1301C23.4959 24.5494 23.374 25.0208 23.3737 25.5C23.3737 25.9958 23.5027 26.4633 23.7279 26.8699L23.7789 26.9592C24.0306 27.3787 24.3867 27.726 24.8125 27.967C25.2383 28.2081 25.7192 28.3348 26.2085 28.3348C26.6978 28.3348 27.1787 28.2081 27.6045 27.967C28.0303 27.726 28.3864 27.3787 28.6381 26.9592L28.6891 26.8699C28.9143 26.4633 29.0418 25.9973 29.0418 25.5C29.0418 25.0042 28.9143 24.5367 28.6891 24.1301L28.6367 24.0408C28.3849 23.6216 28.0288 23.2747 27.6032 23.0338C27.1776 22.793 26.6968 22.6664 26.2078 22.6664C25.7187 22.6664 25.238 22.793 24.8124 23.0338C24.3868 23.2747 24.0307 23.6216 23.7789 24.0408L23.7279 24.1301ZM18.5047 19.8333C17.2942 21.4744 16.6427 23.4608 16.646 25.5C16.6427 27.5392 17.2942 29.5256 18.5047 31.1667H2.8335V28.3333C2.8335 26.079 3.72903 23.917 5.32309 22.3229C6.91715 20.7289 9.07916 19.8333 11.3335 19.8333H18.5047Z" fill="white"/>
</svg>
